<svg xmlns="http://www.w3.org/2000/svg" xmlns:xlink="http://www.w3.org/1999/xlink" width="2000" zoomAndPan="magnify" viewBox="0 0 1500 1499.999933" height="2000" preserveAspectRatio="xMidYMid meet" version="1.0"><defs><clipPath id="3f95734a1c"><path d="M 401.191406 399 L 1140 399 L 1140 1140.417969 L 401.191406 1140.417969 Z M 401.191406 399 " clip-rule="nonzero"/></clipPath></defs><g clip-path="url(#3f95734a1c)"><path fill="#e6eaed" d="M 770.496094 399 C 721.601562 398.367188 673.070312 407.488281 627.71875 425.839844 C 582.367188 444.183594 541.09375 471.390625 506.300781 505.878906 C 471.503906 540.363281 443.871094 581.441406 425.015625 626.730469 C 406.15625 672.019531 396.445312 720.621094 396.445312 769.707031 C 396.445312 818.792969 406.15625 867.394531 425.015625 912.683594 C 443.871094 957.972656 471.503906 999.054688 506.300781 1033.535156 C 541.09375 1068.019531 582.367188 1095.230469 627.71875 1113.578125 C 673.070312 1131.921875 721.601562 1141.046875 770.496094 1140.417969 L 770.007812 1138.464844 C 750.664062 1062.492188 705.074219 995.886719 641.367188 950.527344 C 603.140625 923.019531 574.625 884.023438 559.933594 839.171875 C 545.25 794.320312 545.160156 745.945312 559.675781 701.035156 C 574.1875 656.128906 602.5625 617.023438 640.683594 589.375 C 678.804688 561.726562 724.699219 546.964844 771.726562 547.238281 C 818.753906 547.507812 864.480469 562.785156 902.28125 590.871094 C 940.085938 618.953125 968.011719 658.382812 982.019531 703.453125 C 996.023438 748.523438 995.382812 796.898438 980.183594 841.578125 C 964.992188 886.257812 936.03125 924.929688 897.496094 951.992188 C 834.355469 996.875 789.445312 1063.097656 770.984375 1138.519531 L 770.496094 1140.476562 C 868.441406 1140.476562 962.375 1101.417969 1031.632812 1031.890625 C 1100.894531 962.363281 1139.800781 868.0625 1139.800781 769.738281 C 1139.800781 671.410156 1100.894531 577.109375 1031.632812 507.582031 C 962.375 438.054688 868.441406 399 770.496094 399 Z M 770.496094 399 " fill-opacity="1" fill-rule="nonzero"/></g></svg>